<?xml version="1.0" encoding="UTF-8" standalone="no"?>
<!-- Created with Inkscape (http://www.inkscape.org/) -->

<svg
   xmlns:dc="http://purl.org/dc/elements/1.1/"
   xmlns:cc="http://creativecommons.org/ns#"
   xmlns:rdf="http://www.w3.org/1999/02/22-rdf-syntax-ns#"
   xmlns:svg="http://www.w3.org/2000/svg"
   xmlns="http://www.w3.org/2000/svg"
   xmlns:sodipodi="http://sodipodi.sourceforge.net/DTD/sodipodi-0.dtd"
   xmlns:inkscape="http://www.inkscape.org/namespaces/inkscape"
   version="1.0"
   width="791.04474"
   height="437.58698"
   id="svg2"
   sodipodi:docname="bicycle.svg"
   inkscape:version="0.92.2 2405546, 2018-03-11">
  <sodipodi:namedview
     pagecolor="#ffffff"
     bordercolor="#666666"
     borderopacity="1"
     objecttolerance="10"
     gridtolerance="10"
     guidetolerance="10"
     inkscape:pageopacity="0"
     inkscape:pageshadow="2"
     inkscape:window-width="2556"
     inkscape:window-height="1397"
     id="namedview2552"
     showgrid="false"
     fit-margin-top="2"
     fit-margin-left="2"
     fit-margin-right="2"
     fit-margin-bottom="2"
     inkscape:zoom="0.89904772"
     inkscape:cx="373.63162"
     inkscape:cy="137.59648"
     inkscape:window-x="0"
     inkscape:window-y="20"
     inkscape:window-maximized="0"
     inkscape:current-layer="svg2" />
  <defs
     id="defs4" />
  <metadata
     id="metadata7">
    <rdf:RDF>
      <cc:Work
         rdf:about="">
        <dc:format>image/svg+xml</dc:format>
        <dc:type
           rdf:resource="http://purl.org/dc/dcmitype/StillImage" />
        <dc:title></dc:title>
      </cc:Work>
    </rdf:RDF>
  </metadata>
  <g
     transform="translate(266.67014,130.74056)"
     id="layer1">
    <g
       transform="matrix(2.465279,0,0,2.282609,1920.973,-187.8807)"
       id="g5499"
       style="overflow:visible;fill:#000000">
      <g
         transform="matrix(1.028571,0,0,1.022222,-443.2141,-46.11586)"
         id="g5478"
         style="fill:#000000">
        <path
           d="m -181.10934,219.14712 22.90798,-4.14723 -14.43744,-20.8032 c -7.48373,7.23814 -8.41455,15.92668 -8.47054,24.95043 z m -6.30176,1.52209 c -0.0369,-0.90164 -0.16744,-2.35148 -0.16744,-3.3666 0,-10.29422 3.00202,-20.29795 11.14974,-28.61187 l -8.48546,-11.27016 -13.13407,44.446 z m -50.41148,-44.23474 0.72807,-2.47336 46.78028,-0.0679 -12.44447,41.84698 -0.53709,-4.36546 h 1.43181 l -0.17973,-2.77807 h -6.26121 l 0.17921,2.57986 h 1.61024 l 0.35762,4.76275 c 0,0 -31.4858,-39.30659 -31.66473,-39.50479 z m -20.71854,40.19924 c 6.28213,-5.53526 11.17197,-10.8105 14.69826,-21.36766 5.56559,5.60056 8.74106,13.70118 8.74106,22.03656 0,16.55296 -12.17159,30.05418 -27.09459,30.05418 -14.92275,0 -27.09382,-13.50122 -27.09382,-30.05418 0,-16.55353 12.17107,-30.05446 27.09382,-30.05446 4.76268,0 9.63132,1.52587 13.55711,4.09645 -2.65749,9.31423 -5.24223,14.11818 -13.41846,21.4193 -1.98486,0.0929 -3.49386,1.86048 -3.49386,3.96878 0,2.18635 1.6071,3.96904 3.57758,3.96904 1.97073,0 3.4329,-1.78269 3.4329,-4.06801 z m 78.39164,8.89924 c 3.06429,12.66719 13.96576,21.8247 26.0314,21.8247 14.92299,0 27.09485,-13.50121 27.09485,-30.05504 0,-16.55353 -12.17186,-30.05532 -27.09485,-30.05532 -4.76295,0 -10.27359,1.24727 -14.29408,3.85791 l 14.70612,21.6587 c 1.79859,0.0314 3.36461,1.81403 3.36461,3.96878 0,2.18635 -1.60788,3.96904 -3.57809,3.96904 -0.54547,0 -1.11814,-0.15497 -1.60187,-0.40773 z m -66.55544,-41.145 9.59784,-29.37104 -3.04126,-5.75552 6.08254,-7.34203 h 13.05925 l 0.17921,4.16727 h -11.44954 l -2.32575,2.77806 2.68336,5.35795 -3.37429,13.26674 h 46.86791 l 0.71577,-2.42636 c -3.76671,-0.54382 -10.26337,-3.11818 -11.81501,-4.61271 -1.55163,-1.49539 -0.19307,-2.87036 1.5744,-2.93479 9.25041,-0.43587 22.99327,-1.29545 25.60417,-1.30791 2.61014,-0.0134 2.87776,1.44315 1.13017,3.56363 -1.74758,2.1202 -3.27514,4.02941 -9.89608,5.16728 l -1.78865,5.35795 11.09009,15.24066 c 5.22756,-3.52039 11.54974,-5.35184 17.69271,-5.35184 18.42967,0 33.46097,16.67368 33.46097,37.11732 0,20.44337 -15.0313,37.11675 -33.46097,37.11675 -15.16186,0 -28.49398,-11.59867 -32.41191,-27.62956 l -10.19092,2.0314 c -0.43637,1.3326 -1.453,2.35467 -2.66767,3.15446 l 1.8177,9.56293 h 2.32547 l 0.17895,2.57987 -7.33462,0.39641 v -2.77807 h 1.78918 l -2.2156,-9.55742 c -3.29712,-0.5981 -5.02457,-3.72876 -4.04273,-6.83593 l -33.29067,-41.76515 -1.49041,4.48125 c 8.07969,7.05939 12.91589,17.93372 12.91589,29.24306 0,20.44337 -15.0313,37.11675 -33.46097,37.11675 -18.42942,0 -33.46072,-16.67338 -33.46072,-37.11675 0,-20.44364 15.0313,-37.11732 33.46072,-37.11732 5.35916,0 10.84887,1.45071 15.49147,4.20266 z"
           id="path5490"
           style="fill:#000000;fill-opacity:1;fill-rule:evenodd"
           inkscape:connector-curvature="0" />
      </g>
    </g>
  </g>
  <g
     id="g2529"
     transform="matrix(0.13333333,0,0,-0.13333333,1.7713547,435.71199)">
    <path
       d="M 1.71484,2302.67 H 200.141 V 0.9375 H 1.71484 V 2302.67"
       style="fill:#231f20;fill-opacity:1;fill-rule:nonzero;stroke:none"
       id="path2531"
       inkscape:connector-curvature="0" />
    <path
       d="M 256.832,2778.89 H 455.258 V 454.48 H 256.832 v 2324.41"
       style="fill:#231f20;fill-opacity:1;fill-rule:nonzero;stroke:none"
       id="path2533"
       inkscape:connector-curvature="0" />
    <path
       d="m 1277.3,2778.89 h 198.43 V 454.48 H 1277.3 v 2324.41"
       style="fill:#231f20;fill-opacity:1;fill-rule:nonzero;stroke:none"
       id="path2535"
       inkscape:connector-curvature="0" />
    <path
       d="m 1532.42,2302.67 h 198.43 V 0.9375 H 1532.42 V 2302.67"
       style="fill:#231f20;fill-opacity:1;fill-rule:nonzero;stroke:none"
       id="path2537"
       inkscape:connector-curvature="0" />
    <path
       d="M 511.949,3252.84 H 710.375 V 0.9375 H 511.949 V 3252.84"
       style="fill:#231f20;fill-opacity:1;fill-rule:nonzero;stroke:none"
       id="path2539"
       inkscape:connector-curvature="0" />
    <path
       d="m 1022.19,3252.84 h 198.42 V 0.9375 H 1022.19 V 3252.84"
       style="fill:#231f20;fill-opacity:1;fill-rule:nonzero;stroke:none"
       id="path2541"
       inkscape:connector-curvature="0" />
    <path
       d="M 767.07,3252.84 H 965.496 V 454.48 H 767.07 v 2798.36"
       style="fill:#231f20;fill-opacity:1;fill-rule:nonzero;stroke:none"
       id="path2543"
       inkscape:connector-curvature="0" />
  </g>
</svg>
