<?xml version="1.0" encoding="UTF-8" standalone="no"?>
<!-- Created with Inkscape (http://www.inkscape.org/) -->

<svg
   xmlns:dc="http://purl.org/dc/elements/1.1/"
   xmlns:cc="http://creativecommons.org/ns#"
   xmlns:rdf="http://www.w3.org/1999/02/22-rdf-syntax-ns#"
   xmlns:svg="http://www.w3.org/2000/svg"
   xmlns="http://www.w3.org/2000/svg"
   xmlns:sodipodi="http://sodipodi.sourceforge.net/DTD/sodipodi-0.dtd"
   xmlns:inkscape="http://www.inkscape.org/namespaces/inkscape"
   width="202.74655mm"
   height="228.30347mm"
   id="svg2"
   sodipodi:version="0.32"
   inkscape:version="0.92.2 2405546, 2018-03-11"
   sodipodi:docname="europe-jk.svg"
   inkscape:output_extension="org.inkscape.output.svg.inkscape"
   version="1.0">
  <defs
     id="defs4">
    <marker
       inkscape:isstock="true"
       style="overflow:visible"
       id="marker6228"
       refX="0"
       refY="0"
       orient="auto"
       inkscape:stockid="Arrow1Mend">
      <path
         transform="matrix(-0.4,0,0,-0.4,-4,0)"
         style="fill:#ff0000;fill-opacity:1;fill-rule:evenodd;stroke:#ff0000;stroke-width:1.00000003pt;stroke-opacity:1"
         d="M 0,0 5,-5 -12.5,0 5,5 Z"
         id="path6226"
         inkscape:connector-curvature="0" />
    </marker>
    <marker
       inkscape:stockid="Arrow1Mend"
       orient="auto"
       refY="0"
       refX="0"
       id="marker6158"
       style="overflow:visible"
       inkscape:isstock="true"
       inkscape:collect="always">
      <path
         id="path6156"
         d="M 0,0 5,-5 -12.5,0 5,5 Z"
         style="fill:#ff0000;fill-opacity:1;fill-rule:evenodd;stroke:#ff0000;stroke-width:1.00000003pt;stroke-opacity:1"
         transform="matrix(-0.4,0,0,-0.4,-4,0)"
         inkscape:connector-curvature="0" />
    </marker>
    <marker
       inkscape:stockid="Arrow2Lend"
       orient="auto"
       refY="0"
       refX="0"
       id="Arrow2Lend"
       style="overflow:visible"
       inkscape:isstock="true">
      <path
         id="path4785"
         style="fill:#ff0000;fill-opacity:1;fill-rule:evenodd;stroke:#ff0000;stroke-width:0.625;stroke-linejoin:round;stroke-opacity:1"
         d="M 8.7185878,4.0337352 -2.2072895,0.01601326 8.7185884,-4.0017078 c -1.7454984,2.3720609 -1.7354408,5.6174519 -6e-7,8.035443 z"
         transform="matrix(-1.1,0,0,-1.1,-1.1,0)"
         inkscape:connector-curvature="0" />
    </marker>
    <marker
       inkscape:isstock="true"
       style="overflow:visible"
       id="marker5750"
       refX="0"
       refY="0"
       orient="auto"
       inkscape:stockid="Arrow1Mend">
      <path
         transform="matrix(-0.4,0,0,-0.4,-4,0)"
         style="fill:none;fill-opacity:1;fill-rule:evenodd;stroke:#ff0000;stroke-width:1.00000003pt;stroke-opacity:1"
         d="M 0,0 5,-5 -12.5,0 5,5 Z"
         id="path5748"
         inkscape:connector-curvature="0" />
    </marker>
    <marker
       inkscape:stockid="Arrow1Lend"
       orient="auto"
       refY="0"
       refX="0"
       id="Arrow1Lend"
       style="overflow:visible"
       inkscape:isstock="true">
      <path
         id="path4767"
         d="M 0,0 5,-5 -12.5,0 5,5 Z"
         style="fill:#ff0000;fill-opacity:1;fill-rule:evenodd;stroke:#ff0000;stroke-width:1.00000003pt;stroke-opacity:1"
         transform="matrix(-0.8,0,0,-0.8,-10,0)"
         inkscape:connector-curvature="0" />
    </marker>
    <marker
       inkscape:isstock="true"
       style="overflow:visible"
       id="marker5612"
       refX="0"
       refY="0"
       orient="auto"
       inkscape:stockid="Arrow1Lstart">
      <path
         transform="matrix(0.8,0,0,0.8,10,0)"
         style="fill:#000000;fill-opacity:1;fill-rule:evenodd;stroke:#000000;stroke-width:1.00000003pt;stroke-opacity:1"
         d="M 0,0 5,-5 -12.5,0 5,5 Z"
         id="path5610"
         inkscape:connector-curvature="0" />
    </marker>
    <marker
       inkscape:stockid="Arrow1Mend"
       orient="auto"
       refY="0"
       refX="0"
       id="Arrow1Mend"
       style="overflow:visible"
       inkscape:isstock="true"
       inkscape:collect="always">
      <path
         id="path4773"
         d="M 0,0 5,-5 -12.5,0 5,5 Z"
         style="fill:#ff0000;fill-opacity:1;fill-rule:evenodd;stroke:#ff0000;stroke-width:1.00000003pt;stroke-opacity:1"
         transform="matrix(-0.4,0,0,-0.4,-4,0)"
         inkscape:connector-curvature="0" />
    </marker>
  </defs>
  <sodipodi:namedview
     id="base"
     pagecolor="#ffffff"
     bordercolor="#666666"
     borderopacity="1.0"
     gridtolerance="10000"
     guidetolerance="10"
     objecttolerance="10"
     inkscape:pageopacity="0.0"
     inkscape:pageshadow="2"
     inkscape:zoom="0.7696264"
     inkscape:cx="392.24934"
     inkscape:cy="387.65422"
     inkscape:document-units="px"
     inkscape:current-layer="g2224"
     inkscape:window-width="2556"
     inkscape:window-height="1397"
     inkscape:window-x="0"
     inkscape:window-y="20"
     showguides="true"
     inkscape:guide-bbox="true"
     showgrid="false"
     units="mm"
     inkscape:window-maximized="0"
     fit-margin-top="2"
     fit-margin-left="2"
     fit-margin-bottom="2"
     fit-margin-right="2" />
  <metadata
     id="metadata7">
    <rdf:RDF>
      <cc:Work
         rdf:about="">
        <dc:format>image/svg+xml</dc:format>
        <dc:type
           rdf:resource="http://purl.org/dc/dcmitype/StillImage" />
        <dc:title></dc:title>
      </cc:Work>
    </rdf:RDF>
  </metadata>
  <g
     inkscape:label="Layer 1"
     inkscape:groupmode="layer"
     id="layer1"
     transform="translate(-23.559552,97.263429)">
    <g
       id="g2224"
       transform="matrix(0.912962,0,0,0.912962,826.528,15.2996)">
      <path
         sodipodi:nodetypes="cssssssssssssssssssssssssssssssssssssssssssssssssssssssssssssssssssssssssssssssssssssssssssssssssssssssssssssssssssssssssssssscssssssssssssssssssssssc"
         d="m -484.83321,804.92234 c 0.80911,-4.65602 0.075,-5.03575 0.075,-10.47234 0,-4.94223 -0.3718,-7.80364 0.81975,-12.57009 0.66464,-2.65867 0.40407,-8.37381 3.27917,-11.20364 1.9539,-1.92327 14.08301,-5.84485 19.6748,-10.93041 4.82045,-4.38418 6.56053,-8.74438 14.75603,-8.74438 6.45358,0 7.3446,7.30116 10.65719,7.10479 11.46185,-0.67938 7.97174,4.31562 14.75612,6.01174 6.6981,1.67457 5.98765,-3.35306 11.47694,-0.81984 3.61983,1.67065 10.83986,3.26199 13.11653,5.73852 4.72702,5.142 9.7133,5.06785 13.38975,8.74438 0.36438,0.36429 12.99396,3.71029 20.49463,3.27909 5.55427,-0.31928 14.29752,-2.61322 15.30256,-5.1919 1.22653,-3.14693 1.69995,-5.25244 6.55826,-10.11075 4.15869,-4.15868 8.41115,-7.75339 13.11653,-9.83735 5.9396,-2.6305 9.46312,-8.72729 13.11653,-12.02347 5.58804,-5.04151 11.80129,-8.10486 10.11067,-12.29678 -3.82449,-9.48309 -9.17734,3.45731 -16.39562,-3.00587 -1.58847,-1.42229 -13.71662,-6.39871 -14.20959,-10.6571 -0.41245,-3.5627 -1.23839,-5.44785 2.18612,-12.29678 2.49903,-4.99824 9.1085,-7.56034 4.09884,-12.57 -2.68214,-2.68214 -4.70548,-2.24614 -7.92455,-5.46521 -2.88042,-2.88042 -6.31374,-3.9351 -5.46521,-9.83744 0.80414,-5.59391 7.79117,-5.46524 13.66306,-5.46524 2.3332,0 4.59643,-2.62491 5.1919,-5.73852 0.88875,-4.64676 -0.5747,-7.13157 -5.1919,-15.30256 -1.21231,-2.14546 -5.44209,-1.16563 -5.4652,-9.29091 -0.0244,-8.29311 7.91067,-4.58988 7.65123,-12.02347 -0.15083,-4.32434 -10.87536,-3.6624 -9.0176,-7.37801 0.27313,-0.54618 4.12876,-13.87574 -0.27322,-14.75612 -1.42848,-0.2857 -16.94215,-0.32042 -16.94215,5.73851 0,3.5251 -0.49802,9.30862 -3.27917,9.83736 -7.18697,1.36636 -9.98758,-1.57626 -7.1048,-7.37802 2.82948,-5.69437 5.24328,-5.6081 6.83157,-12.02347 3.82562,-15.45295 4.77343,-9.00033 11.20364,-13.38984 0.0375,-0.0253 -0.34999,-10.32247 3.8257,-11.47694 5.60976,-1.55104 7.29235,-3.38098 12.2967,-9.0176 1.5684,-1.76652 2.33965,-9.84128 4.37223,-14.20959 1.67352,-3.59654 6.08327,-1.03191 9.83735,-1.09306 8.20449,-0.13356 11.82911,-3.3077 10.65719,-10.6571 -1.03757,-6.50697 3.00587,-7.58285 2.45934,-15.84918 -0.48293,-7.30517 1.22357,-9.96803 3.82571,-15.57587 1.91281,-4.12239 2.90729,-10.8095 4.09884,-15.57586 2.16649,-8.66587 1.8281,-6.03948 8.19785,-9.56414 4.89443,-2.70831 7.39607,-14.48281 -1.09306,-14.48281 -6.11895,0 -5.04848,0.40826 -11.47694,-1.36636 -2.18603,-0.6035 -5.33636,-5.91072 -8.74438,-3.5524 -2.53079,1.75142 -7.70637,0.24705 -10.11066,-1.91281 -2.936,-2.63747 -12.86556,-1.66192 -14.2095,-3.00587 -2.77758,-2.77748 -2.62858,-12.25508 -5.46521,-13.38975 -5.71636,-2.28661 -13.31525,-0.36996 -18.58182,-3.27917 -7.68116,-4.24304 -14.3387,-0.51661 -15.57587,-3.00587 -2.90154,-5.83805 -4.5495,-8.14987 -10.11066,-10.93041 -1.76696,-0.88352 -9.83736,-4.16287 -9.83736,-6.28505 0,-5.09908 0.70303,-8.66473 -0.54653,-13.66297 -2.67097,-10.68397 -3.02078,0.8953 -5.4652,4.64537 -2.9332,4.50012 -3.25833,2.12924 -8.74438,1.63959 -7.22449,-0.64476 -8.47108,-2.74364 -8.47108,-11.20372 0,-5.11383 -1.80638,-5.88115 -7.92454,-7.1048 -6.77801,-1.35555 -9.14837,-3.45347 -13.11653,-8.74429 -0.84278,-1.12368 -6.55827,-12.04511 -6.55827,-13.11653 0,-8.49489 -3.99258,-7.0214 -8.19785,-4.91877 -9.95503,4.97756 -2.56969,-3.71657 -9.0176,-4.09883 -4.43967,-0.26328 -2.65737,-13.11662 -7.1048,-13.11662 -6.55826,0 -10.93041,0.81984 -17.48867,0.81984 -5.89659,0 -10.55661,-1.3108 -11.75025,6.01173 -0.81975,5.02921 -2.75908,11.03649 -2.45934,16.1224 0.32949,5.58978 -4.15642,9.21685 -0.81975,13.66306 4.9308,6.57039 -4.06264,3.47981 -6.01174,7.37801 -2.19667,4.39326 -1.496,3.00997 -6.28504,5.46521 -3.36449,1.72499 -9.48449,4.09893 -15.02934,4.37223 -3.54847,0.17482 -13.71244,1.4523 -16.66893,2.45934 -7.67627,2.61471 -6.40516,3.84376 -6.28495,13.11653 0.0933,7.20494 -2.82093,6.24701 -9.56414,8.47108 -3.21148,1.05921 -7.41334,1.42577 -10.9305,-1.36628 -2.8156,-2.23532 -8.77648,-2.87729 -13.66305,-4.09893 -7.03335,-1.7584 -13.19374,-2.7685 -14.20959,-7.65132 -0.66535,-3.19831 -0.98306,-10.93042 -3.00587,-10.93042 -4.5543,0 -9.08931,-0.34501 -12.02347,-3.27917 -4.04266,-4.04266 -7.27743,-3.95447 -9.01761,3.00587 -1.64377,6.57518 3.77162,4.93708 3.5524,12.29677 -0.24164,8.11429 2.45934,12.35043 2.45934,21.86083 0,8.62051 -1.35241,8.22568 1.63959,14.20959 3.39188,6.78377 -2.93896,8.1797 -8.74438,3.8257 -7.60902,-5.70676 -6.77287,-1.63959 -13.11653,-1.63959 -3.49971,0 -8.33185,-7.38316 -10.93042,-3.00586 -2.25538,3.79918 -10.84527,5.7017 -15.02933,-0.81975 -3.09555,-4.8249 -0.89137,-11.28991 -4.64546,-13.11653 -4.73199,-2.30249 -6.30903,-0.72842 -12.84322,-1.36637 -6.42488,-0.62722 -5.21048,5.24293 -8.47107,4.91876 -3.50189,-0.34815 -5.41488,-0.2733 -10.6572,-0.2733 -4.43251,0 -9.02405,-5.39211 -12.57,-2.73256 -3.59549,2.69653 -15.46115,-2.0619 -16.94223,5.73842 -0.46636,2.45638 -3.19308,7.14676 0.54653,7.92455 8.17002,1.69925 -0.86703,10.14189 7.10479,10.38397 5.11286,0.15528 7.32332,4.37215 -3.55239,4.37215 -8.97949,0 -6.7351,4.46339 0.54652,8.19785 3.26086,1.6723 1.96838,10.35614 5.73852,10.38388 3.5537,0.0262 10.6749,-4.45476 17.7619,2.45934 4.11559,4.01518 9.24354,6.33241 14.48289,6.83157 7.0891,0.67529 1.3361,10.22616 5.73843,9.01761 14.71712,-4.0404 13.73451,-1.95172 12.02347,0.81975 -2.34218,3.79395 -2.96539,6.95806 4.09893,5.19198 8.52533,-2.13133 3.72346,2.30816 3.27917,7.92455 -0.35766,4.5207 -0.86834,7.3781 8.47108,7.3781 12.84025,0 -1.80883,3.22858 2.18612,6.83148 3.52805,3.18183 4.3198,12.24444 0.54652,9.56414 -5.7885,-4.11175 -9.08111,-1.15657 1.91281,10.93041 5.02476,5.52435 4.06308,8.12623 7.65124,15.30265 1.86151,3.72302 5.28716,9.29082 10.11066,9.29082 5.41042,0 9.54843,-2.66958 7.92463,9.56413 -0.75441,5.68382 -1.29658,6.36042 -1.63958,12.29678 -0.55447,9.5958 -1.9601,4.45258 -3.5524,9.0176 -1.35136,3.87421 0.55133,6.28985 3.27917,6.55827 4.03211,0.39692 6.04349,5.86553 8.7443,10.11066 1.62301,2.55102 2.79197,5.77437 3.00587,10.38397 0.3239,6.97883 -2.33538,5.72709 -4.37215,-1.63959 -2.1398,-7.73917 -3.86112,-10.26507 -5.46521,-11.20372 -4.07162,-2.38266 -5.90112,1.19696 -7.65132,8.19786 -1.5261,6.10429 -2.72,14.97882 -4.37223,21.5876 -0.67468,2.6988 -5.80604,10.25294 -1.09298,10.38388 10.1145,0.28107 8.38899,6.31919 0.81975,6.01174 -6.57108,-0.26677 -2.07742,5.03072 -6.01173,14.75615 -1.80342,4.45807 -3.44039,7.4273 -6.01174,12.57 -2.80976,5.61961 -3.68569,8.73775 -6.55826,14.48281 -1.75544,3.51096 -0.69736,7.40654 -2.73256,11.47694 -2.57458,5.14915 -5.0169,6.46588 -12.66683,6.95405 -1.08495,0.21434 2.19397,-0.62722 5.95145,4.45354 2.10935,2.85225 8.11376,1.25514 10.82059,2.51185 1.43493,0.66631 -3.28485,7.41518 -1.93227,11.59349 1.05703,3.2654 5.76748,1.03758 10.24091,4.05775 2.03049,1.37091 2.12165,5.0238 9.08154,5.0238 3.303,0 8.6951,1.92755 8.6951,6.37647 0,4.37912 3.48514,3.28484 7.72896,3.28484 5.06454,0 8.28352,-1.25994 9.46809,3.47799 1.24424,4.97695 2.03337,4.95915 6.95606,5.02388 4.28281,0.0558 7.97688,0.47037 12.17316,0.19323 5.85018,-0.38646 3.10933,2.70516 9.85445,2.12548 3.82213,-0.32852 3.86444,-1.30024 3.86444,-5.99001 0,-2.9018 8.41716,1.22121 9.85445,2.31872 4.00419,3.05759 6.72506,5.59867 8.69519,5.41024 3.07469,-0.29398 5.27136,4.30576 7.14928,4.44421 3.19787,0.23571 2.31871,5.89161 2.31871,8.50187 0,5.92301 2.23681,4.4442 7.72897,4.4442 5.81973,0 8.07197,-1.11155 10.04768,3.28485 0.85813,1.90932 0.32835,3.23686 4.83065,3.28475 5.3785,0.0576 2.57972,-2.95666 8.50187,-2.70508 7.68037,0.32618 5.41417,6.37638 12.55962,5.7967 6.37559,-0.51721 1.98303,-4.63743 11.20703,-4.83065 4.79629,-0.10041 2.79372,-2.11555 5.94405,-1.61481 z"
         style="fill:#ffffff;fill-rule:evenodd;stroke:#000000;stroke-width:4.32823277;stroke-linecap:round;stroke-linejoin:miter;stroke-miterlimit:4;stroke-opacity:1"
         id="path8072"
         inkscape:connector-curvature="0" />
      <path
         sodipodi:nodetypes="cssssssssssssscsssssssssssssssssssssssss"
         d="m -362.51602,444.35391 c -2.59961,-0.9868 -7.45792,0.39936 -8.0765,-0.84522 -2.90163,-5.83814 -4.5495,-8.14987 -10.11067,-10.9305 -1.76703,-0.88343 -9.83744,-4.16287 -9.83744,-6.28496 0,-5.09908 0.70303,-8.66482 -0.54653,-13.66306 -2.67097,-10.68388 -3.02078,0.8953 -5.4652,4.64546 -2.9332,4.50003 -3.25833,2.12915 -8.7443,1.63959 -7.22456,-0.64485 -8.47116,-2.74373 -8.47116,-11.20372 0,-5.11391 -1.80638,-5.88115 -7.92454,-7.1048 -6.77801,-1.35563 -9.14837,-3.45347 -13.11653,-8.74438 -0.8427,-1.12368 -6.55827,-12.04502 -6.55827,-13.11653 0,-8.4948 -3.9925,-7.02131 -8.19785,-4.91868 -9.95503,4.97756 -2.56969,-3.71666 -9.0176,-4.09892 -4.43958,-0.26319 -2.65728,-13.11653 -7.10471,-13.11653 1.14182,-0.28081 2.28382,-0.56154 3.42564,-0.84226 2.37106,-0.58299 4.60088,-5.00565 6.95615,-6.18324 5.14121,-2.57056 7.13498,-3.52274 12.36639,-4.83057 4.46244,-1.11565 7.84385,-0.73373 9.468,-1.54581 1.4755,-0.73775 2.7945,4.44412 4.44412,4.44412 6.19981,0 7.07967,-0.85831 8.50195,3.47807 0.36953,1.12682 6.91724,0.0872 8.11542,0.38645 2.30964,0.57741 5.91743,-3.1355 7.92219,-4.25097 3.94146,-2.19301 5.2206,-7.02594 9.66122,-6.76284 3.80059,0.22525 6.13631,-1.59265 9.08155,1.35259 2.51909,2.51909 5.40484,0.87008 7.92228,0.96613 2.09033,0.0794 4.21425,3.71797 4.44411,4.63734 0.73322,2.93285 4.6636,4.44421 8.30864,4.44421 5.68086,0 11.11108,5.37203 11.78672,8.88832 0.64685,3.36658 -1.83657,5.76529 -2.70508,7.14937 -0.88073,1.40335 -1.95224,4.42422 -1.54581,7.14928 0.52524,3.52222 4.18328,5.88411 8.69509,6.95606 1.62651,0.38645 6.82451,1.71269 6.59491,6.44652 -0.12396,2.55695 0.92583,3.1457 2.10019,4.56729 1.9771,2.39347 4.33681,3.39345 4.44411,6.56969 0.0593,1.7482 -2.24456,6.50278 -3.47798,8.50187 -2.00842,3.25519 -7.88852,4.35592 -11.59349,4.44412 -3.54167,0.0846 -5.41025,5.4092 -5.41025,7.14937 0,4.4586 -6.91069,3.90988 -1.54581,9.27477 2.95117,2.95126 2.90668,9.4345 2.12549,12.55962 -0.2747,1.09847 -1.04368,5.02135 -6.91445,2.79275 z"
         style="opacity:1;fill:#ffffff;fill-rule:evenodd;stroke:#000000;stroke-width:4.32823277;stroke-linecap:butt;stroke-linejoin:miter;stroke-miterlimit:4;stroke-dasharray:none;stroke-opacity:1"
         id="path2173"
         inkscape:connector-curvature="0" />
      <path
         sodipodi:nodetypes="cssssssssssssssssssssssssssssssssssssssssssscssssssssssssssssssssssssssssssssssssssssssssssssssssssssssssssssssssssssssssssssssssssssssssssssssssssssssssssssssssscssssssssssssssssssssccsssssssssssssc"
         d="m -232.21269,553.63797 c -0.83031,-0.83031 3.03806,-0.62696 3.90517,-0.62696 0.86712,0 4.14281,0 6.18316,0 2.22075,0 3.81838,0 5.98992,0 2.3612,0 3.3303,1.60644 4.44421,3.09171 0.78389,1.04508 1.03033,3.92785 1.35258,5.21702 0.66325,2.653 0.78433,3.72922 2.89831,4.44403 3.21139,1.0859 5.55785,-0.92557 5.79679,-1.93218 0.52411,-2.20757 1.54581,-3.12346 2.31871,-5.02371 0.89128,-2.19161 1.04325,-4.17333 1.54581,-6.18332 0.34284,-1.37143 5.34168,-0.77282 6.56961,-0.77282 2.18986,0 4.37973,0 6.56969,0 1.34334,0 2.27248,2.7138 2.51185,3.67121 0.46026,1.84075 2.3359,3.39005 3.6713,4.05766 1.36227,0.68105 3.9269,0.35392 5.60348,0.77282 2.13002,0.53266 4.98392,-2.84343 7.14928,-4.83048 1.66419,-1.52705 3.23765,-4.22891 6.76292,-4.25098 2.55268,-0.0157 3.82073,-1.42725 4.83065,-1.93217 1.3409,-0.67058 4.59068,0 6.18316,0 1.89928,0 3.68822,0.52699 5.02388,0.19305 2.77243,-0.69291 3.97915,-1.3887 5.02379,-3.4779 0.80327,-1.60644 1.34325,-3.39441 4.05767,-3.28493 2.46256,0.0995 3.61433,-0.30733 4.05775,0.57976 1.02842,2.05675 0.53737,2.93608 2.70517,3.47799 2.42941,0.60742 3.57534,-0.19462 4.25098,-1.54564 1.15647,-2.31322 4.73705,-1.47113 6.18306,-0.38654 0.58343,0.43758 0.90725,4.78809 1.15936,5.79679 0.36377,1.45456 2.08161,2.31863 3.86461,2.31863 2.72096,0 5.0238,1.15072 5.0238,-2.31863 0,-2.1719 -0.29756,-3.8954 -0.773,-5.79679 -0.44778,-1.79164 -2.84151,-2.5915 -3.47798,-3.86443 -0.83554,-1.67135 -0.42737,-2.73457 -0.38645,-5.02397 0.0541,-3.01093 -1.98757,-5.9211 -3.67122,-6.76292 -1.81309,-0.90655 -3.47798,-3.79474 -3.47798,-5.79653 0,-2.67838 0.22289,-3.93876 0.96604,-5.79687 0.33978,-0.84959 3.28145,-2.14224 4.63726,-2.51186 2.13709,-0.58255 3.48531,-1.98233 5.60356,-2.51185 2.1821,-0.54557 2.21395,-0.82193 5.02406,-1.5459 1.49992,-0.38645 2.143976,-0.59835 3.671116,-2.12557 1.46625,-1.46599 1.68914,-2.69846 2.1254,-4.44403 0.47875,-1.91482 0.58544,-3.84952 0.38654,-5.41025 -0.24478,-1.91962 1.78911,-3.67148 4.44421,-3.67148 2.06608,0 3.17929,0.81696 4.63725,1.5459 1.88716,0.94354 2.12567,2.5874 2.12567,-0.96613 0,-2.07576 0.19322,-3.67662 -0.23624,-7.20921 -0.81992,-3.94871 0.67267,-9.29999 -1.70196,-9.24503 -6.42165,0.14865 0.0288,-4.18058 -5.63671,-4.18058 -3.68875,0 -6.16274,-1.21327 -8.771076,-3.82169 -3.50066,-3.50058 -4.5392,-4.69117 -6.87039,-9.31761 -1.17811,-2.33799 -3.42154,-4.21974 -6.54623,-4.55167 -2.5723,-0.27323 -4.21084,-1.62293 -7.68203,-3.318 -1.75526,-0.85709 -2.44948,-2.58818 -4.77002,-5.72639 -1.15831,-1.5664 -3.54839,-2.99243 -3.54839,-7.2722 0,-2.32953 -2.45271,-2.90598 -2.60406,-5.17584 -0.26179,-3.92629 2.01095,-5.30845 2.24108,-8.23266 0.16618,-2.11162 -1.50377,-6.66461 -3.318,-7.04984 -1.69053,-0.35906 -5.7564,-2.22956 -5.53037,-4.79611 0.20247,-2.29865 -0.9308,-3.89471 -0.20003,-5.02519 1.50612,-2.33006 4.20753,-2.22206 6.58906,-5.82017 1.06828,-1.6142 2.76187,-1.86195 7.63117,-1.86195 5.95303,0 2.08161,-1.68268 7.68212,-2.04139 4.26563,-0.27331 0.0174,-4.33865 5.82016,-4.13784 4.43173,0.15345 3.38491,-1.7666 4.63333,-3.0487 0.84069,-0.86328 2.42567,-1.69664 4.86015,-1.51231 2.26585,0.17151 3.540616,-2.76379 4.243206,-3.48409 2.06547,-2.11746 5.46433,-5.6122 7.68212,-5.3245 5.2486,0.6807 2.59743,-2.22458 5.96087,-4.04806 1.76888,-0.95898 4.44447,-1.38931 5.86702,-2.49816 2.00501,-1.563 8.74874,-0.9158 6.63599,-3.96232 -1.77367,-2.55739 -1.16651,-10.07428 3.1813,-5.72639 3.57473,3.57465 4.44882,7.59637 10.50444,7.59637 3.79788,0 5.285325,-1.51057 6.635989,-3.81759 1.857589,-3.17293 1.178724,-7.79701 1.178724,-12.50702 0,-1.83648 0.198635,-10.98502 -0.956361,-12.14002 -1.918566,-1.91856 -2.449132,-3.04242 -5.043332,-5.63671 -3.43577,-3.43576 -2.96792,-2.52773 -4.13775,-8.22858 -0.93856,-4.57429 -4.92094,-1.18295 -5.13703,-6.4136 -0.29398,-7.25604 4.7641,-2.67969 4.63743,-8.27954 -0.17578,-7.7708 -2.08073,-10.20153 -4.59861,-13.82243 -1.69428,-2.43664 -4.0868,-5.53191 -4.0868,-8.09197 0,-3.49464 1.8739,-3.75167 2.04951,-7.22132 0.29887,-5.90894 -0.9862,-7.25506 -2.45541,-7.99822 -2.97115,-1.50293 -9.43634,-3.14551 -10.3209,-4.91469 -3.14702,-6.29405 -2.62866,-7.96953 1.26849,-11.86674 1.70929,-1.7093 2.45183,-3.82338 2.86524,-8.31836 0.22777,-2.47755 -1.07971,-7.08322 -0.17953,-10.68397 1.09611,-4.38445 5.80856,-2.49914 6.13631,-7.36596 0.21547,-3.19897 -0.0558,-6.92369 -4.95349,-9.37259 -4.1011,-2.05056 -4.81591,-4.53178 -5.68355,-6.36267 -1.63968,-3.46006 -0.95872,-5.5452 -4.00114,-8.5876 -2.10577,-2.10578 -5.18448,-2.75369 -7.41282,-5.63669 -2.32552,-3.00866 -3.96633,-3.68498 -8.045096,-3.41173 -2.56376,0.17177 -10.64873,1.25606 -10.4576,-5.32054 0.0994,-3.42075 2.65806,-3.00106 7.77188,-3.04472 6.095306,-0.0521 0.71376,-3.61329 -0.4059,-8.092 -0.92339,-3.69356 0.41375,-8.81453 -3.86453,-7.72899 -3.0514,0.77426 -4.31858,-6.27158 -7.23338,-5.54289 -5.27695,1.31923 1.34936,8.23724 -3.90736,8.092 -3.56164,-0.10101 -3.2127,3.63008 -1.45203,4.31324 1.97806,0.76747 4.65942,0.38435 4.77003,3.08757 0.18546,4.53279 -5.46835,8.76525 -6.86228,3.18936 -1.00417,-4.01642 -5.17244,-4.44864 -11.64443,-4.13774 -4.72851,0.22714 -7.54202,3.09213 -10.5902,6.14034 -1.9183,1.91828 -3.66344,5.05589 -6.90921,6.67878 -1.13179,0.56592 -8.86433,4.00868 -11.04696,4.14179 -3.57246,0.21789 -3.57752,4.44443 -5.54685,7.22532 -0.91441,1.29118 -4.57463,1.90805 -6.08545,1.91284 -3.74118,0.0119 -4.58274,-2.63072 -7.08962,-2.58331 -1.824,0.0345 -2.44364,2.51154 -4.23868,2.62618 -2.13962,0.13662 -5.66785,0.93841 -6.09338,-3.67696 -0.3691,-4.00314 8.89992,-5.90212 10.50444,-7.50665 1.79164,-1.79165 -1.42752,-10.2913 2.22895,-10.59419 3.64809,-0.30219 2.70412,-6.40957 0.17953,-6.40957 -2.53907,0 -4.96474,-0.43536 -6.36068,0.63224 -1.39585,1.06758 -1.07866,3.77474 -4.00715,3.63812 -4.02827,-0.18793 -0.57009,2.44478 -7.76787,2.23298 -4.10216,-0.12074 -10.03477,-2.10939 -11.96049,-3.63814 -1.83613,-1.4576 -4.18468,-5.25256 -4.18468,-8.36525 0,-4.78494 -1.07491,-10.80829 -6.8703,-11.36711 -2.83411,-0.27324 -4.67887,-0.69423 -7.81472,0.0898 -4.01867,1.00467 -9.09498,2.11573 -12.22978,0.0469 -1.5172,-1.00127 -4.53868,-3.8291 -7.63519,-4.36414 -3.61991,-0.62545 -9.96253,-0.48052 -13.18614,-2.09233 -0.706,-0.35296 -6.54623,-6.88416 -6.54623,-2.54506 0,3.8645 0,7.72899 0,11.59349 0,5.79964 4.33656,6.23733 7.54952,4.86377 1.38774,-0.59327 1.7947,-1.97171 4.32321,-1.78674 1.25436,0.0917 3.09101,2.03033 4.08488,2.92264 2.10403,1.88915 2.94742,7.37349 -0.13661,10.45758 -0.83318,0.83314 -6.95614,4.241 -6.95614,6.18318 0,4.4331 8.12309,-0.66263 8.59564,4.86377 0.27331,3.19551 0.10739,6.03381 0.0855,8.13487 -0.009,0.71662 -0.23885,4.53826 -0.0288,6.95105 0.19671,2.26079 2.2272,2.46034 2.3434,3.55337 0.27392,2.57465 -1.6067,1.91678 -4.17657,2.50626 -1.25688,0.28833 -3.90971,-2.19197 -6.02386,-2.13048 -3.22657,0.0939 -4.47779,4.43945 -4.80073,7.49791 -0.36578,3.46418 3.16062,8.41131 0.36298,9.40741 -1.986,0.70715 -2.93651,-3.03249 -5.99559,-2.59599 -3.06755,0.43771 -4.74386,3.19227 -7.81873,-0.36303 -1.80926,-2.09194 -2.37725,-4.7018 -4.82098,-6.90516 -2.64087,-2.38122 -5.48596,-4.07693 -9.41138,-1.54983 -1.91778,1.23465 -5.50507,0.88281 -9.41138,0.99928 -3.87674,0.11562 -6.502,6.16365 -7.27621,8.50591 -0.99518,3.01035 -3.1601,7.71649 -0.35906,9.81728 3.06885,2.30163 6.11319,6.11003 5.58986,9.32165 -0.59651,3.66055 -2.31985,1.73021 -2.38091,4.82593 -0.0611,3.09576 0.10075,8.10391 -0.30489,9.72254 -0.56276,2.24583 -1.69673,4.35 -2.99775,7.22531 -1.85358,4.09641 -3.1096,6.70188 -6.08545,6.4136 -2.09365,-0.20282 -7.83461,3.60403 -7.69416,7.63119 0.22079,6.32992 9.52121,4.65601 10.09452,6.69089 1.9539,6.93411 -0.39029,6.97935 -4.09482,10.68393 -3.51672,3.51667 -4.51417,5.31036 -4.40704,6.9052 0.58901,8.76383 -1.83099,6.09461 -4.7231,8.46304 -1.2787,1.04713 -6.49877,3.81703 -10.00485,3.27108 -0.71655,-0.11158 -7.11116,-2.9058 -9.50114,-2.17805 -2.07795,0.63277 -1.31944,3.51234 -1.31944,8.36124 0,5.4245 3.9344,6.30549 4.31728,10.45755 0.81975,8.89024 -2.62125,6.02726 -2.45533,10.91034 0.1497,4.28256 1.02144,7.67305 -0.22637,8.91179 -1.4871,1.47628 -6.43893,1.69367 -6.27292,6.04654 0.14743,3.86653 3.12477,0.35034 1.53569,12.46907 0.57034,1.98801 5.76835,3.31416 5.53875,8.04816 -0.12397,2.55695 0.92582,3.14553 2.10019,4.5672 1.9771,2.39348 4.33681,3.39355 4.44411,6.56978 0.0593,1.7482 -2.24465,6.50279 -3.47798,8.50178 -1.00426,1.62755 -4.0807,2.45315 -5.53491,4.51714 -1.20551,1.71086 -0.30628,7.63195 0.1722,8.11035 2.5772,2.57728 4.0834,5.36375 6.81544,6.72969 1.61289,0.80649 3.46368,2.48524 3.76664,4.63743 0.40164,2.85268 0.18224,8.25438 -2.32272,8.95461 -1.95495,0.54653 -2.09967,2.46109 -1.99045,5.27765 0.0567,1.47018 0.9151,2.62893 2.16736,3.50765 2.37167,1.66428 2.68772,10.61235 5.46521,13.38984 1.34394,1.34386 11.2735,0.36831 14.20958,3.00595 2.4043,2.15978 7.57979,3.66424 10.11067,1.91281 3.40802,-2.3584 6.55826,2.94891 8.74429,3.5524 6.42846,1.77463 5.35808,1.36628 11.47703,1.36628 8.48904,0 5.9874,11.7745 1.09297,14.4829 -6.36975,3.52465 -6.03136,0.89834 -8.19777,9.56404 -1.19163,4.76654 -2.18611,11.45365 -4.09892,15.57587 -2.60214,5.60783 -4.30864,8.27078 -3.82571,15.57595 0.54653,8.26634 -3.49691,9.34204 -2.96172,19.16569 -0.20309,2.76938 1.94761,3.58895 3.07321,3.58825 1.12551,-0.38689 4.4709,0.0968 6.37638,0.0968 2.31871,0 4.63743,0.0966 6.95606,0.0966 2.64279,0 1.69175,-0.16339 3.09162,-1.35259 1.28314,-1.08983 1.03461,-1.54755 4.34754,-1.54581 2.42044,0 3.42155,1.27809 4.734,2.02884 2.68397,1.53525 5.5275,0.26057 6.5697,0 2.55102,-0.63778 3.17876,-1.74279 3.86443,-3.47799 0.72842,-1.8432 0.82281,-3.44222 2.70517,-3.86444 2.47452,-0.55508 4.85011,0.49236 6.95606,0.38628 3.83792,-0.19305 3.53582,1.51205 4.83066,1.83587 1.75892,0.43975 3.57664,-0.19742 5.21702,0.38628 1.59832,0.56868 1.81554,2.40298 3.76787,2.22205 1.97378,-0.18284 3.85091,1.97894 5.2171,1.83561 2.76885,-0.29014 3.45208,2.58269 4.34755,3.47825"
         style="fill:#ffffff;fill-rule:evenodd;stroke:#000000;stroke-width:4.32823277;stroke-linecap:round;stroke-linejoin:miter;stroke-miterlimit:4;stroke-opacity:1"
         id="path9957"
         inkscape:connector-curvature="0" />
      <path
         sodipodi:nodetypes="cscssccsssss"
         d="m -337.7308,448.57706 c -3.57569,-1.12778 -12.58029,-1.7434 -18.37159,-3.3747 -6.15933,-1.73502 -3.62942,-1.5158 -0.91597,-5.02746 0.78128,-3.1252 0.82577,-9.60853 -2.12549,-12.5597 -5.36479,-5.36489 1.54581,-4.81627 1.54581,-9.27486 0,-1.74017 1.86867,-7.06493 5.41034,-7.14937 3.54167,-0.0846 6.84378,-1.44689 5.63828,0.26406 -1.20551,1.71094 -0.30628,7.63195 0.1722,8.11044 2.5772,2.57737 4.0834,5.36384 6.81535,6.72986 1.61289,0.80631 3.46377,2.48507 3.76673,4.63725 0.40164,2.85277 0.18224,8.25438 -2.32272,8.95471 -1.95495,0.54644 1.27546,8.96997 0.38706,8.68977 z"
         style="fill:#ffffff;fill-rule:evenodd;stroke:#000000;stroke-width:4.32823277;stroke-linecap:round;stroke-linejoin:miter;stroke-miterlimit:4;stroke-opacity:1"
         id="path5154"
         inkscape:connector-curvature="0" />
      <path
         sodipodi:nodetypes="cssssssssssssssssssssssssssssssssssssssssssssssssscssssssssssssssssssssssssssssssss"
         d="m -310.53693,242.085 c -1.04752,-0.64084 -2.20269,-1.31442 -2.22564,-1.32016 -1.24188,-0.31046 -2.7172,-1.93225 -4.54086,-1.93225 -2.18987,0 -4.18651,-0.0966 -6.37638,-0.0966 -1.74732,0 -4.01492,-0.22807 -5.7967,-0.0966 -1.9122,0.14109 -1.02431,-2.02277 -4.83065,-2.02885 -3.87159,-0.006 -2.22206,2.12547 -7.24594,2.12547 -1.7796,0 -4.57881,0.88851 -6.08659,1.6424 -1.42978,0.71492 -2.97341,1.9837 -4.83057,2.41533 -1.93871,0.45057 -2.3311,0.73775 -5.02388,1.93224 -1.36296,0.60463 -3.59314,1.67942 -4.25089,2.995 -0.67878,1.35755 -1.73197,3.06329 -3.6713,4.05769 -0.65104,0.33385 -3.00927,0.53851 -3.86452,0.96614 -0.96308,0.48153 -1.93218,2.4846 -1.93218,3.57464 0,1.16594 0.56895,3.86451 2.31863,3.86451 1.53185,0 5.0716,-0.48548 5.99001,2.51191 0.56668,1.8493 0.17901,3.36721 0.2898,5.02387 0.12274,1.83449 1.22513,4.70311 2.80182,6.27978 0.33839,0.33847 3.38142,3.34574 3.38142,3.76788 0,1.40356 -0.34441,3.28482 -1.35258,3.67128 -0.77038,0.29531 -2.83585,0.23278 -4.54078,1.5458 -1.48806,1.14597 -2.18585,1.59389 -2.70517,3.67127 -0.32521,1.30103 -0.83274,3.76786 -2.60851,3.76786 -1.94098,0 -2.88504,0.14307 -4.15432,-0.67626 -1.08433,-0.69993 -1.35101,-2.8034 -1.35258,-3.96112 0,-2.60757 -0.20404,-4.42891 1.25593,-4.44418 1.99132,-0.0198 3.38141,-1.38089 3.28484,-3.57465 -0.0878,-1.99248 -0.39491,-4.20687 -1.83569,-4.92724 -1.1919,-0.59596 -1.87015,-2.45685 -2.31863,-4.25093 -0.17438,-0.6976 -0.79201,-3.60358 -2.51194,-4.25095 -0.84828,-0.31929 -2.28635,-1.32362 -2.89839,-1.83564 -5.05608,-4.22949 -5.91517,-3.04793 -5.70013,-1.15934 0.2617,2.298 -0.0672,3.30118 -2.31872,3.09161 -4.94267,-0.46012 -4.46043,4.86216 -3.96109,6.85947 0.3171,1.26823 1.73903,3.11806 1.73903,4.25093 0,2.17102 0.14743,4.14437 -0.28979,5.89337 -0.3171,1.26823 -1.46582,2.73833 -2.12549,4.05771 -0.63926,1.27859 -1.47506,2.95013 -2.31872,4.6374 -0.70163,1.40332 -1.47471,3.21376 -2.60851,4.34755 -0.85962,0.85961 -2.60493,3.324 -3.28484,5.02384 -0.46288,1.15716 -2.45481,2.64802 -3.67122,3.86449 -0.62722,0.62715 -3.88336,2.74272 -4.05775,3.0916 -0.75127,1.50246 -2.71642,2.34127 -3.47807,3.86448 -0.75633,1.51266 -1.86692,2.8303 -2.31872,4.6374 -0.34719,1.3891 -0.24539,5.02385 -1.93217,5.02385 -2.01854,0 -4.63743,-0.19187 -4.63743,2.3187 0,1.41156 -0.21582,5.32497 -1.15936,5.79673 -1.29789,0.64898 -2.77295,0.7729 -5.02379,0.7729 -1.84669,0 -4.22228,-0.41514 -5.41034,0.77289 -1.63435,1.63434 -2.41685,3.76638 0,6.18324 1.45491,1.45491 2.24186,2.41877 0.38645,4.63734 -3.69101,4.05418 -0.51835,7.75496 1.13127,7.75496 6.19982,0 7.07967,-0.85831 8.50187,3.47807 0.36962,1.12682 6.91733,0.0872 8.1155,0.38645 2.30964,0.57742 5.91735,-3.13549 7.92219,-4.25097 3.94147,-2.19301 5.2206,-7.02594 9.66123,-6.76283 3.80058,0.22524 6.1363,-1.59275 9.08154,1.35258 2.5191,2.51909 5.40484,0.87008 7.92219,0.96613 2.09042,0.0794 4.21434,3.71797 4.44421,4.63734 0.73321,2.93277 4.6636,4.44421 8.30864,4.44421 5.68085,0 11.11107,5.37204 11.78671,8.88832 0.64685,3.36658 -1.83656,5.76529 -2.70517,7.14937 -0.88064,1.40327 -1.95215,4.42423 -1.54572,7.14928 0.52525,3.52222 8.47003,7.93868 9.01307,6.25085 1.53848,-4.7825 -1.07038,-9.30783 -1.21781,-13.17437 -0.166,-4.35295 4.78582,-4.57025 6.27292,-6.04654 1.24782,-1.23874 0.37607,-4.62923 0.22638,-8.91179 -0.16592,-4.88308 3.27507,-2.0201 2.45532,-10.91034 -0.38287,-4.15206 -4.31727,-5.03305 -4.31727,-10.45759 0,-4.84891 -0.75851,-7.72848 1.31943,-8.36125 2.38999,-0.72774 8.7846,2.06648 9.50115,2.17806 3.50607,0.54595 8.72615,-2.22395 10.00485,-3.27108 2.89211,-2.36843 5.3121,0.30079 4.72309,-8.46304 -0.10712,-1.59484 0.89032,-3.38853 4.40704,-6.9052 3.70454,-3.70458 6.04872,-3.74983 4.09483,-10.68394 -0.57331,-2.03487 -9.87373,-0.36097 -10.09453,-6.69088 -0.14044,-4.02716 5.60051,-7.83402 7.69416,-7.63119 2.97586,0.28827 4.23187,-2.31719 6.08545,-6.41361 1.30103,-2.8753 2.435,-4.97948 2.99775,-7.22531 0.40565,-1.61862 0.24391,-6.62678 0.30489,-9.72253 0.0611,-3.09572 1.7844,-1.16538 2.38092,-4.82594 0.52323,-3.21161 -2.52102,-7.02002 -5.58987,-9.32164 -1.40048,-1.0504 -1.25191,-1.86898 -3.08333,-2.98934 z"
         style="fill:#ffffff;fill-rule:evenodd;stroke:#000000;stroke-width:4.32823277;stroke-linecap:round;stroke-linejoin:miter;stroke-miterlimit:4;stroke-opacity:1"
         id="path5196"
         inkscape:connector-curvature="0" />
      <path
         sodipodi:nodetypes="ccsscccccscssscsssssssssssssssc"
         d="m -719.73814,149.22053 c 4.00375,-0.95868 13.632,1.077 15.07635,-3.82414 1.59938,-2.39338 2.77976,-3.4735 6.08851,-4.58384 3.16324,-1.06152 5.84197,-1.98765 8.5495,-4.14937 2.14188,-1.71011 4.75223,-4.37974 4.639,-7.49001 0.12928,-3.44436 0.17656,-4.71912 -1.26256,-7.89919 -2.40456,-2.35054 -5.1994,-3.05411 -8.30175,-3.51089 -4.80911,0.85729 -3.66371,-6.05488 0.46418,-5.62913 4.42754,-0.15993 4.00201,-5.90579 2.20042,-8.49612 -2.63852,-2.1036 -4.07066,-5.681701 -2.43596,-8.65892 1.293,-2.355119 1.25445,-6.966047 -1.22923,-8.630951 -2.63433,-1.327486 -4.90297,-2.879943 -8.13225,-3.086569 -3.52867,-0.2258 -7.38517,0.0017 -11.35761,-0.309118 -6.28207,-0.492077 -7.32262,0.320738 -8.02355,2.315792 -1.31098,3.731675 -4.86608,2.217339 -7.72731,-1.064419 -3.55248,1.069331 -7.03125,4.784282 -7.82815,5.581168 -2.52816,2.528185 -2.78036,6.839416 -5.21876,9.277766 -1.84695,1.846961 -8.1251,1.014751 -10.72742,1.014751 -3.86322,0 -0.35435,3.94637 0.28997,6.52343 0.50239,2.00971 -1.03705,2.72367 -3.04425,2.46443 -3.3631,-0.43438 -4.82551,1.1805 -6.66844,2.89928 -1.41444,1.31917 -1.31612,6.18775 -1.01472,7.39322 0.56694,2.26773 3.21462,3.47245 6.23348,6.81337 1.59458,1.76475 3.66284,3.51784 4.63892,4.49391 1.93409,1.93417 2.29559,4.44889 5.21876,4.78387 2.63887,0.30241 6.24972,0.42148 8.11803,-1.30468 1.66829,-1.5414 2.21683,-4.4338 3.33414,-6.66842 1.43563,-2.8712 2.47792,-3.87444 5.79862,-3.04426 0.60785,0.15196 3.18923,4.87856 3.18923,6.52344 0,3.40299 2.60599,5.63954 2.60939,8.11804 0.009,3.63424 3.33466,9.95071 6.52346,10.14756 z"
         style="fill:#ffffff;fill-rule:evenodd;stroke:#000000;stroke-width:4.32823277;stroke-linecap:butt;stroke-linejoin:miter;stroke-miterlimit:4;stroke-opacity:1"
         id="path9096"
         inkscape:connector-curvature="0" />
      <path
         sodipodi:nodetypes="cssssssssssssssssssssssssssssssssssssssssssssssssssssssssssssssssssssssssssssssssssssssssssssssssssssssssssssssssssssssssssssssssssssssssssssssssssssssssss"
         id="path9103"
         d="m -670.76388,249.56241 c -4.94965,3.53301 -14.24597,6.55738 -19.71527,6.23352 -7.0323,-0.41642 -9.77123,1.37086 -13.91666,4.20399 -3.95149,2.70053 -1.94168,17.27142 2.31942,18.41055 6.34724,1.69686 9.4037,0.92034 12.17709,-1.1597 3.79892,-2.84921 10.21343,-3.3607 11.59724,1.1597 1.52531,4.98286 -2.63721,8.49392 2.17443,10.14756 3.68499,1.26644 8.67293,-6.08363 12.90193,-1.1597 3.50756,4.08392 2.32054,8.44508 7.10322,12.0321 4.68375,3.51275 13.28612,-0.6759 17.54085,-1.73959 4.20701,-1.05176 13.37771,-0.59009 4.05897,1.73959 -2.88086,0.72024 -4.67459,1.59718 -5.93846,3.84888 -1.26387,2.25169 1.91612,6.45798 -7.39834,6.29868 -6.67132,-0.11065 -6.68711,-0.0409 -10.29246,-2.46439 -4.62775,-3.11074 -14.73693,-1.59463 -21.01996,-1.59463 -5.70772,0 0.33795,7.83012 -7.97314,7.82813 -8.02242,-0.002 -8.69797,6.82967 -11.74214,11.45222 -6.92439,10.51462 -10.42305,4.97628 -16.23606,12.32205 -4.0793,5.15482 -5.87155,9.24668 -15.6563,9.27782 -5.51467,0.0174 -10.47975,2.82311 -10.58243,5.36367 -0.16304,4.03655 4.16235,5.22914 8.84287,1.88454 1.41644,-1.0121 4.27619,-0.74926 4.09483,1.8562 -0.26232,3.76699 2.94445,4.33681 7.21244,2.20286 3.06266,-1.53133 8.98096,-6.70089 12.17709,-9.13284 7.50032,-5.70702 5.79033,1.21161 16.23607,0.28997 13.14401,-1.15979 9.60731,7.14937 16.38105,8.84287 8.32678,2.08161 9.40283,-3.43916 11.45234,-7.53818 2.71005,-5.42028 2.71651,-12.03219 17.54075,-12.46706 9.91718,-0.29381 10.05841,2.11083 15.22135,7.68316 5.4844,5.91927 7.09842,-0.81504 10.14756,1.01481 3.31233,1.98775 5.6969,4.45057 12.32199,-2.17451 4.5283,-4.5283 13.23875,-1.6969 12.90193,3.33422 -0.45912,6.85704 11.28721,5.73843 13.48179,4.34894 0.83266,-0.52725 1.6429,-6.16317 -1.30993,-6.80496 -2.83,-0.6151 -3.22204,-4.33063 3.04948,-2.76275 5.18353,1.29588 -3.16332,4.49393 18.41058,4.05906 8.25849,-0.16653 11.58416,0.42833 17.39586,3.33414 4.36395,2.18201 10.38205,1.13885 15.07636,0 4.19358,-1.01734 9.66707,-4.54906 13.62668,-4.49393 3.98605,0.0558 7.37915,-7.09607 12.90193,-7.3932 3.80181,-0.20456 10.00258,-2.78333 9.56771,-10.87237 -0.29215,-5.53038 -13.6354,-4.12868 -15.22134,-6.23352 -3.71186,-4.92636 -11.67811,-0.16516 -11.59724,-4.49392 0.0794,-4.40689 12.32208,0.78349 12.03211,-7.5382 -0.28988,-8.32008 2.48149,-8.26301 7.68316,-8.11804 4.842,0.13128 3.61634,-4.55046 5.50865,-6.6684 2.90014,-3.24582 12.61196,-8.42594 12.75695,-16.23608 0.0846,-4.54171 4.92879,-9.50106 4.92879,-16.96092 0,-8.36809 0.57201,-12.72269 -5.94351,-14.35157 -5.24032,-1.31008 -6.49284,-5.86353 -13.77167,-7.82811 -7.51942,-2.02951 -11.35787,-3.13867 -16.81601,2.31943 -7.23338,7.23333 -17.5452,1.96904 -13.19181,-3.18924 1.88454,-2.23298 8.77308,-6.53411 9.85759,-10.87239 1.70223,-6.80883 1.01158,-10.43943 -1.30469,-13.04684 -8.78774,-9.89245 -3.04425,-5.58406 -3.04425,-14.06163 0,-6.97212 -1.28585,-11.45846 -5.07378,-14.64148 -1.81554,-1.5256 -0.20727,-13.0265 -2.4644,-17.54078 -2.65475,-5.30951 -5.83098,-13.42548 -10.8724,-15.94618 -4.27191,-2.13596 -9.40388,-7.08444 -12.75695,-10.43749 -5.39681,-5.39683 -4.57706,-10.4186 -6.23348,-18.70053 -1.06017,-5.30117 -1.01473,-11.82455 -1.01473,-17.25084 0,-7.35109 -0.28997,-10.600597 -0.28997,-17.105884 0,-4.258506 -6.14223,-8.477974 -10.14756,-14.931434 -2.38013,-3.835005 -10.43945,-11.054068 -13.77166,-11.887122 -3.65883,-0.914706 -11.95639,2.421583 -18.2656,1.159733 -7.72233,-1.544467 -4.17918,-3.346636 -0.14498,-5.363726 4.56092,-2.280453 7.01459,-3.755001 10.43744,-2.899283 7.24071,1.81015 5.79862,-8.319712 5.79862,-11.597222 0,-3.832126 6.5211,-6.239428 9.13284,-8.84288 4.1907,-4.177438 9.1249,-7.361658 10.58243,-13.191831 1.77358,-7.09423 5.11252,-11.8420823 9.27774,-17.3958153 3.71692,-4.955848 8.81033,-8.186355 8.69797,-13.7717017 -0.16539,-8.222276 -3.16681,-9.688206 -5.65363,-10.582436 -3.09607,-1.11331 -14.37316,-1.44966 -16.67102,-1.44966 -5.17201,0 -10.45978,-1.99886 -15.22134,-3.18926 -5.46416,-1.36603 -9.14201,-2.41195 -12.46698,-2.17446 -4.24915,0.3035 -11.3494,6.35487 -13.19181,-1.01475 -0.68341,-2.73345 11.23817,-1.51869 3.76909,-8.98783 -4.94171,-4.94167 2.79807,-6.70266 7.39319,-9.13282 6.75795,-3.57403 8.12745,-5.53221 15.51123,-10.00261 6.25111,-3.78456 10.23837,-7.07006 10.43753,-15.80119 0.0803,-3.5095 -2.21717,-5.65364 -8.26302,-5.65364 -5.87512,0 -7.62829,2.89931 -14.93137,2.89931 -5.13537,0 -11.48654,-0.44344 -14.93146,-2.17448 -7.65918,-3.84867 -10.16929,-7.51401 -17.39577,-5.07377 -3.06188,1.0339 -7.93318,13.4189 -4.7839,15.36628 5.10135,3.15442 3.10409,3.35733 -4.05897,0.86981 -6.3339,-2.19957 -1.44968,7.32257 -5.21877,8.40797 -5.66096,1.63024 1.73956,1.06363 1.73956,9.71267 0,5.04031 -7.86453,-2.40109 -9.85759,-2.75433 -2.47025,-0.43783 -4.39483,0.51053 -6.08859,2.60936 -1.58655,1.96607 -2.18734,3.76246 -2.02953,7.68315 0.38418,9.68481 -3.92559,7.75708 -3.25458,12.3552 0.11585,0.79408 -0.43748,3.40125 1.43511,4.98948 1.57626,1.33692 0.37241,3.8971 -0.24565,4.67445 -1.23604,1.55466 -7.49657,-0.84234 -8.8072,-3.46358 -1.40204,-2.80407 6.15472,-5.6371 2.31942,-8.40799 -2.9524,-2.133 2.91339,-11.59719 -5.79862,-11.59719 -7.84516,0 -2.45201,8.37857 -5.50865,6.81335 -3.78628,-1.93876 -7.89297,-1.14447 -9.27783,1.44966 -1.87425,3.51108 0.75415,5.6505 6.23358,7.53817 1.71059,0.58933 -3.52981,11.158162 7.68307,9.56771 5.82113,-0.82567 0.73313,3.930627 2.89936,8.2630117 1.72185,3.443624 13.87739,-5.1905447 4.34894,3.76909 -2.4282,2.283289 -1.56064,0.299147 -3.33422,7.393229 -1.25785,5.031568 -5.16102,2.35408 -9.27774,5.508667 -6.02534,4.6171653 -7.98936,8.8933713 -2.4644,14.2066043 0.8365,0.804441 0.64938,4.054385 -4.05662,2.107807 -2.20173,-0.910728 -4.85717,4.22007 -1.16214,6.300153 2.01757,1.135769 10.91313,-0.194788 12.61196,0.144976 7.02584,1.405178 5.49329,-11.245681 13.62676,-12.611978 3.23914,-0.544122 -1.36837,10.353159 -4.92888,14.206587 -2.86577,3.101583 -2.55512,5.291695 -2.75428,9.422751 -0.0768,1.592036 -1.79862,6.254607 -3.56967,5.263997 -2.9537,-1.652019 0.3868,-6.16574 -4.40346,-5.698892 -6.64175,0.647304 -5.26117,5.753859 -9.19827,6.224538 -4.02766,0.481495 -9.7127,1.524167 -12.69143,4.502878 -4.56293,4.562905 -2.85024,7.732191 0.57985,11.162319 4.76235,4.762351 10.71424,-0.276789 12.32208,-1.884562 5.87844,-5.878493 1.47471,-10.152561 10.00257,-12.75692 4.46986,-1.365085 -0.8406,12.698428 -2.02953,16.526035 -1.74523,5.618156 -2.70577,12.128118 -6.81334,15.221335 -3.4526,2.599926 3.14091,8.79456 5.07378,4.928813 3.41501,-6.830055 10.0469,-21.056697 10.58244,-11.452236 0.28997,5.199932 3.7628,7.472168 5.20925,6.257303 1.44645,-1.214875 1.47934,-8.344164 1.4591,-9.591516 -0.10137,-6.262737 -7.39633,-6.520265 -2.75428,-11.162318 3.79744,-3.797485 9.68426,9.82924 13.48178,13.626725 4.07895,4.078967 2.32718,8.827325 -1.0148,12.467001 -2.5177,2.741998 -11.64313,12.528259 -14.6415,16.526034 -3.51113,4.68155 -4.63882,7.87277 -4.20395,11.01737 1.16398,8.41609 8.35801,7.63245 9.13284,3.04426 0.76741,-4.54465 4.42187,-0.52471 7.68308,3.47916 1.17253,1.43953 1.5903,4.70591 4.39421,4.41497 2.80776,-0.29131 3.96467,-4.02687 4.88361,-5.86464 1.9559,-3.91184 4.49611,2.68298 8.408,4.63891 2.49328,1.24666 6.93809,-3.31431 9.71261,-3.04429 4.9848,0.48515 5.61551,-7.03157 9.85768,-4.34894 5.35259,3.38485 -2.51159,8.55295 -5.50874,10.00261 -5.88166,2.84484 -5.07378,5.34472 -5.07378,11.88712 0,6.47546 2.41729,7.75276 4.20405,14.64149 1.96323,7.56949 3.77973,11.56739 8.69309,8.50614 4.35278,-2.71202 6.10481,-1.73815 6.52825,1.64142 0.43539,3.47553 -2.0762,6.11958 -4.34894,7.68316 -8.72641,6.00345 0.0384,12.36214 -7.2483,14.93141 -2.46283,0.86837 3.09729,14.9314 -11.16237,14.9314 -7.89349,0 -7.69101,0.10282 -11.88712,-3.04426 -2.51534,-1.88652 -8.02644,5.40196 -12.03211,-2.60936 -2.55678,-5.11359 -7.65996,-5.65945 -11.74214,-4.63889 -1.43763,0.35939 -1.10684,11.82841 0.28989,13.6267 1.17785,1.51644 3.90203,0.19027 4.20404,3.62416 0.62234,7.07662 -15.51384,3.68252 -15.6563,11.74217 -0.13608,7.70508 7.35944,2.16698 10.8724,0.14496 10.50122,-6.04425 6.9421,7.74913 6.95833,12.32204 0.01,2.68491 2.3017,11.90485 -7.82806,19.1354 z"
         style="opacity:1;fill:#ffffff;fill-rule:evenodd;stroke:#000000;stroke-width:4.32823277;stroke-linecap:butt;stroke-linejoin:miter;stroke-miterlimit:4;stroke-dasharray:none;stroke-opacity:1"
         inkscape:connector-curvature="0" />
      <path
         id="path9105"
         d="m -712.22395,-31.380092 c -1.10423,0.93739 -1.34334,3.23749 -1.73956,5.21875 -0.23789,1.18931 0.99771,3.44508 1.44967,4.34896 0.27261,0.54538 3.43995,0.28992 4.34895,0.28992 1.54921,0 1.7399,-1.45108 2.02944,-2.60935 0.3984,-1.5935 -0.23562,-3.48853 -0.57986,-4.34897 -0.0506,-0.1269 -0.19322,-0.19328 -0.28988,-0.28993 -1.26273,-1.26274 -1.52697,-2.21313 -2.89935,-2.89931 -1.61359,-0.8068 -2.37394,-0.0372 -2.6093,-1.44965"
         style="fill:#ffffff;fill-rule:evenodd;stroke:#000000;stroke-width:4.32823277;stroke-linecap:butt;stroke-linejoin:miter;stroke-miterlimit:4;stroke-dasharray:none;stroke-opacity:1"
         inkscape:connector-curvature="0" />
      <path
         id="path9107"
         d="m -703.81595,-49.065832 c -0.93333,-0.46665 -3.35673,0.3318 -4.34894,0.57985 -1.95303,0.48827 -2.02953,1.42324 -2.02953,3.47919 0,1.85255 1.2274,1.61153 2.89926,2.0295 1.67701,0.41924 3.44702,0.13691 5.21877,0.57986 1.28628,0.32157 3.16341,-0.066 4.05906,-0.28993 1.78876,-0.44719 1.69838,-1.86484 2.02944,-3.18923 0.0803,-0.32242 -2.75472,-3.04467 -2.89927,-3.18924 -1.12743,-1.12742 -3.43524,-1.12015 -4.92879,0 z"
         style="fill:#ffffff;fill-rule:evenodd;stroke:#000000;stroke-width:4.32823277;stroke-linecap:butt;stroke-linejoin:miter;stroke-miterlimit:4;stroke-dasharray:none;stroke-opacity:1"
         inkscape:connector-curvature="0" />
      <path
         id="path9109"
         d="m -684.9705,-71.680402 c -0.69893,-0.6989 -2.43431,-2.47263 -3.18924,-3.47916 -0.91405,-1.21876 -2.86446,-0.4523 -3.76909,0 -1.61699,0.8085 -1.44968,2.98445 -1.44968,4.6389 0,1.27025 0.30105,3.23362 0.57986,4.34894 0.54225,2.16885 -0.49934,3.26974 1.15979,4.92881 0.95383,0.95389 0.86974,2.12761 0.86974,3.76909 0,0.63872 -3.54403,0.76682 -4.05898,0.86981 -1.51588,0.30317 -1.44967,3.63132 -1.44967,4.92881 0,1.78203 2.05971,2.03704 3.18923,2.31944 1.88324,0.4708 2.82512,0.007 3.18924,-1.44965 0.25211,-1.0085 1.95093,-2.53083 2.60938,-3.18924 1.34029,-1.34026 1.27774,-2.21168 1.73956,-4.05902 0.41376,-1.65498 2.75149,-0.57985 4.05906,-0.57985 0.94563,0 1.92511,0.86978 3.47912,0.86978 1.71296,0 2.24745,-0.72571 2.89936,-2.02951 0.80736,-1.61488 1.88384,-2.60687 2.31941,-4.34897 0.58038,-2.3214 0.80597,-2.0295 3.47912,-2.0295 1.62842,0 3.00787,0.0907 4.34894,-0.57985 1.48361,-0.74182 0.85046,-3.55675 0.57994,-4.6389 -0.38078,-1.52306 -1.83909,-1.83902 -2.60938,-2.60936 -1.51763,-1.51758 -1.83945,-3.0894 -0.57986,-4.34896 0.79367,-0.79367 3.78436,-1.15973 4.63883,-1.15973 0.70382,0 0.86982,-3.07653 0.86982,-3.76909 0,-0.99356 -2.50696,-2.02951 -3.4792,-2.02951 -1.95006,0 -3.25798,0.23464 -4.63883,0.57985 -1.65799,0.41449 -1.73965,1.60608 -1.73965,3.18924 0,1.81161 -2.80304,1.44966 -4.34894,1.44966 -1.52287,0 -3.01642,0.3192 -4.05897,0.57985 -2.30703,0.57676 -2.90345,-0.27339 -3.47921,2.02953 -0.32547,1.30193 0.34624,3.12429 0.57986,4.05902 0.35478,1.4189 0.34859,1.73957 -1.73956,1.73957 z"
         style="fill:#ffffff;fill-rule:evenodd;stroke:#000000;stroke-width:4.32823277;stroke-linecap:butt;stroke-linejoin:miter;stroke-miterlimit:4;stroke-dasharray:none;stroke-opacity:1"
         inkscape:connector-curvature="0" />
      <path
         id="path9111"
         d="m -660.03647,138.80903 c 0.32557,1.30252 -2.87876,0.82864 -3.4792,2.02951 -0.64903,1.29814 -1.15971,2.42974 -1.15971,4.05902 0,1.945 -1.33915,3.04188 -2.31941,4.34897 -1.02571,1.36754 -2.29429,1.21001 -1.15971,3.47916 0.39727,0.79464 2.86961,1.15971 3.76909,1.15971 2.46283,0 2.14521,-1.33269 2.6093,-3.18924 0.33001,-1.31992 3.55606,-0.86978 4.92888,-0.86978 1.53892,0 1.41269,-2.75152 1.73956,-4.05903 0.34336,-1.3734 0.28988,-2.89117 0.28988,-4.34896 0,-1.62046 -2.16945,-1.7021 -3.47912,-2.02951 -2.02412,-0.50603 1.85611,1.21797 -1.73956,-0.57985 z"
         style="fill:none;fill-rule:evenodd;stroke:#000000;stroke-width:4.32823277;stroke-linecap:butt;stroke-linejoin:miter;stroke-miterlimit:4;stroke-dasharray:none;stroke-opacity:1"
         inkscape:connector-curvature="0" />
      <path
         id="path9113"
         d="m -568.41852,-102.99286 c -1.10388,-0.34501 -3.26356,-1.21552 -4.34894,-2.02951 -1.33889,-1.0042 -4.49899,0.43997 -5.21877,1.1597 -1.07605,1.07614 -2.06643,2.6832 -2.60938,3.76909 -0.85456,1.709198 -0.86974,2.951878 -0.86974,4.928818 0,1.33626 0.71236,2.29464 1.15971,3.18924 0.42021,0.8405 4.04876,0.86981 4.92879,0.86981 1.49932,0 2.81919,0.49971 3.47921,1.1597 0.91527,0.91531 1.31821,1.89815 2.02944,2.60939 0.50117,0.50115 3.54062,0.57985 4.34894,0.57985 2.19554,0 1.93907,-1.08764 2.3195,-2.60937 0.41141,-1.64553 -1.44723,-3.04304 -2.3195,-3.47916 -0.91762,-0.45881 -2.37838,-2.37845 -3.47911,-3.47916 -0.98882,-0.98881 -0.57986,-2.97508 -0.57986,-4.348968 0,-0.86441 0.77317,-1.54628 1.15971,-2.31943 z"
         style="fill:#ffffff;fill-rule:evenodd;stroke:#000000;stroke-width:4.32823277;stroke-linecap:butt;stroke-linejoin:miter;stroke-miterlimit:4;stroke-dasharray:none;stroke-opacity:1"
         inkscape:connector-curvature="0" />
      <path
         id="path9115"
         d="m -568.7084,-112.56057 c 0,-1.62004 -1.05677,3.06722 -1.44968,4.63889 -0.40975,1.63889 0.22751,2.83685 0.86974,3.47916 1.0435,1.04347 1.89972,0.89997 2.60938,2.31944 0.42658,0.853 1.75701,1.56954 2.3195,2.319448 0.69125,0.92174 0.73941,2.9284 1.1597,3.76909 0.50082,1.00167 3.48506,0.43342 4.05898,0.28993 0.12178,-0.0304 0.50378,-4.04462 0.57985,-4.348968 0.46549,-1.86164 2.02543,-2.24592 3.47921,-2.60936 2.48882,-0.6222 2.5833,0.10422 3.18923,-2.31943 0.49201,-1.96788 -1.44618,-2.89589 -2.31941,-3.76911 -0.5563,-0.55631 -4.51504,0 -5.50874,0 -2.07314,0 -2.20522,-0.75558 -3.18923,-1.73959 -1.11025,-1.11025 -0.36901,-2.31943 -2.60939,-2.31943 -1.14531,0 -2.03554,0.0592 -3.18914,0.28993 z"
         style="fill:#ffffff;fill-rule:evenodd;stroke:#000000;stroke-width:4.32823277;stroke-linecap:butt;stroke-linejoin:miter;stroke-miterlimit:4;stroke-dasharray:none;stroke-opacity:1"
         inkscape:connector-curvature="0" />
      <path
         sodipodi:nodetypes="cssssssssssssssssssssssssssssssssssssssssssssssssssssssssssssssssssssssssssssssssssssssssssssssssssssssssssss"
         id="path9127"
         d="m -718.02257,150.40623 c 0.26816,2.57618 1.1597,5.55773 1.1597,9.27779 0,3.34345 -0.56668,5.54165 0.14499,7.53818 0.71986,2.01957 3.90631,1.57564 4.20396,6.08854 0.17124,2.59566 -2.15271,3.36226 -3.91399,5.07377 -4.94511,4.80538 -1.30469,6.13002 -0.57986,9.27779 0.54383,2.36181 0.1449,4.56381 0.1449,7.39323 0,2.18257 -1.19739,6.83058 -2.75428,10.14753 -0.86982,1.85307 -6.08859,1.55654 -6.08859,6.37848 0,3.39318 -1.73642,5.49622 -2.4644,8.40798 -0.37799,1.51196 -4.13181,5.52702 -5.65363,6.6684 -2.36731,1.77547 -3.06344,3.55659 -4.49393,6.6684 -0.87392,1.90123 0.0838,3.49455 -2.02953,4.92882 -2.18812,1.48532 -4.90952,0.32838 -5.94352,-1.73958 -0.72222,-1.44436 -9.00669,-0.28993 -10.72741,-0.28993 -3.02977,0 -6.24858,-0.24995 -9.42273,-0.14498 -4.16923,0.13788 -7.45966,-0.61912 -11.01738,1.15971 -2.27344,1.1367 -0.80824,3.93491 -5.36375,5.07377 -2.50584,0.62648 -5.57364,0.125 -7.3932,0.57988 -2.62456,0.65616 -3.02183,2.92996 -6.37847,3.76911 -2.31854,0.57963 -6.03817,-0.26476 -7.82815,-1.15972 -1.28149,-0.64076 -1.83517,2.56 -2.6093,3.33418 -1.07264,1.07265 -4.65941,2.10435 -8.24862,2.27884 -4.16932,0.20269 -6.41241,1.95805 -7.69756,2.21508 -3.88799,0.77761 -5.67832,-1.88453 -9.27782,-1.88453 -2.89927,0 -3.33414,2.31943 -6.23349,2.31943 -2.9783,0 -4.80771,-3.11317 -10.58243,-1.88453 -3.87962,0.82541 -8.82438,-4.1724 -2.31941,-5.79862 3.43829,-0.85959 5.21867,-2.91414 5.21867,-6.95833 0,-3.95092 -0.99753,-6.21633 -2.89926,-8.11806 -2.12828,-2.12823 -5.17428,2.31946 -8.11803,2.31946 -3.62751,0 -4.00751,0.0516 -6.95833,-1.59463 -3.23032,-1.80203 -4.92888,-2.31472 -4.92888,-6.52343 0,-3.12799 3.53878,-5.59049 5.50873,-6.37847 2.00013,-0.80007 5.93035,0.32287 8.11804,0.86978 5.21396,1.30351 3.59304,-4.48022 -0.14499,-4.9288 -3.23512,-0.38824 -7.75836,-0.60759 -10.00258,-1.88455 -2.69086,-1.53114 -2.68728,-2.98875 -0.86982,-5.65364 0.52664,-0.77211 7.11413,-3.3342 8.26302,-3.3342 4.90393,0 4.81696,1.04787 7.97313,4.20399 3.40384,3.40388 3.47912,-0.88815 3.47912,-2.60938 0,-3.0537 0.40259,-7.22518 3.47921,-6.95833 7.53565,0.65362 2.17443,-2.20676 1.59457,-5.50866 -0.50509,-2.87614 1.43241,-2.949 3.62411,-4.92882 1.71845,-1.55223 5.95843,-3.91407 8.69797,-3.91407 2.92317,0 2.56332,-3.11847 4.20396,-4.34895 1.98041,-1.48532 1.29099,-5.03477 3.18923,-6.52344 2.88845,-2.2652 2.19345,-2.38717 6.81334,-2.02951 2.75856,0.21355 6.07429,-0.57985 8.98786,-0.57985 4.3253,0 -1.41321,-4.97401 -1.73956,-5.21875 -1.24999,-0.93747 -7.03309,-0.57985 -8.69788,-0.57985 -5.23971,0 -6.95833,0.78402 -6.95833,-4.63889 0,-2.43628 -3.14039,-4.17956 -5.21877,-5.21875 -2.4541,-1.22703 -6.23636,-1.84902 -8.11803,-2.31943 -3.52928,-0.88233 -3.62864,-5.06934 -1.73965,-6.95834 1.93166,-1.93158 0.50379,-4.12787 2.3195,-5.94358 2.00738,-2.00742 2.84527,2.42744 5.79862,-3.47915 1.53866,-3.07742 2.61549,-5.43466 6.95833,-4.34894 3.57743,0.89436 5.61918,2.48486 5.07378,-1.73958 -0.17281,-1.3384 -2.96199,-1.68025 -5.36375,-1.7396 -3.35446,-0.0829 -5.29876,-0.51492 -6.66836,-1.88454 -1.8254,-1.82543 -5.49129,-3.75202 -5.79862,-6.37847 -0.33219,-2.83876 2.55129,-4.05904 5.21877,-4.05904 3.40619,0 4.92522,2.75433 8.69789,2.75433 2.68519,0 -0.0218,-3.03381 -5.65364,-5.50867 -2.34724,-1.03144 -1.82182,-4.4117 0.57985,-6.81336 1.10685,-1.10687 8.68402,-0.86979 10.29255,-0.86979 2.33468,0 6.3687,0.57743 8.69789,1.15972 3.84149,0.9604 3.69319,0.71793 5.79862,3.47917 2.18158,2.86113 0.69875,4.62587 3.6241,6.08852 2.98197,1.49101 3.53277,-3.32562 5.36367,-3.62411 3.39589,-0.5536 5.18413,0.25528 6.95841,2.0295 2.86638,2.86643 2.10952,3.97032 4.34894,3.91407 2.21944,-0.0557 -0.57994,-6.25871 1.88455,-7.82812 1.07125,-0.68227 6.30039,-2.85522 7.68316,-3.18924 3.36563,-0.81304 5.07378,-2.15607 5.50865,-3.7691 0.57959,-2.14968 -3.75129,-2.18028 -6.23349,-2.31943 -2.58618,-0.14495 -5.73031,-0.70633 -8.11803,-3.769088 -1.9081,-2.447466 -0.47133,-6.342096 1.01472,-7.828132 1.10492,-1.104888 7.11335,-1.018473 8.26302,-1.01473 2.05614,0.007 3.45766,-1.329676 3.6241,-4.348969 0.14499,-2.629099 0.93874,-7.199986 3.91408,-9.132807 2.89604,-1.88129 6.59525,-1.739576 7.97305,-1.739576 3.4792,0 6.81342,0.14495 10.29254,0.14495 1.78833,0 1.3655,3.102454 1.3047,4.928839 -0.14482,4.349632 -0.45991,7.239512 0.72483,7.103276 5.4407,-0.625669 4.09614,-6.5205 2.89927,-9.132806 -0.79332,-1.731595 0.61492,-4.865088 3.76909,-5.363716 3.03012,-0.478992 4.66918,-1.892091 6.95833,-2.464389 1.66506,-0.41627 3.48636,1.534679 5.79861,3.91404 2.27964,2.345731 -0.28813,5.770355 -1.01472,6.958325 -1.59466,2.60729 -4.24522,3.561967 -5.65363,3.914066 -2.24779,0.561953 -5.72656,4.276904 -6.52346,5.07379 -2.52817,2.528185 -2.78036,6.839407 -5.21868,9.277766 -1.84703,1.846961 -8.12518,1.014756 -10.7275,1.014756 -3.86322,0 -0.35435,3.946365 0.28997,6.523425 0.50239,2.00971 -1.03705,2.72367 -3.04425,2.46443 -3.3631,-0.43438 -4.82551,1.1805 -6.66844,2.89928 -1.41444,1.31917 -1.31612,6.18775 -1.01473,7.39322 0.56695,2.26773 3.21463,3.47245 6.23349,6.81336 1.59458,1.76476 3.66284,3.51785 4.63891,4.49392 1.9341,1.93417 2.2956,4.44889 5.21877,4.78387 2.63887,0.30241 6.24971,0.42148 8.11803,-1.30468 1.66829,-1.5414 2.21683,-4.4338 3.33414,-6.66842 1.43563,-2.8712 2.47792,-3.87444 5.79862,-3.04426 0.60785,0.15196 3.18923,4.87856 3.18923,6.52344 0,3.40298 2.60598,5.63954 2.60939,8.11804 0.009,3.63424 0.2904,4.73196 3.4792,4.92881 3.39904,0.20984 3.79884,4.74819 4.05898,7.24826 z"
         style="opacity:1;fill:#ffffff;fill-rule:evenodd;stroke:#000000;stroke-width:4.32823277;stroke-linecap:butt;stroke-linejoin:miter;stroke-miterlimit:4;stroke-dasharray:none;stroke-opacity:1"
         inkscape:connector-curvature="0" />
      <circle
         style="fill:#ff0000;stroke-width:0.9555198"
         id="path3899"
         cx="-528.229"
         cy="276.06345"
         r="9.2169075" />
      <circle
         style="fill:#ff0000;stroke-width:0.9555198"
         id="path3899-3"
         cx="-242.50488"
         cy="410.22064"
         r="9.2169075" />
      <circle
         style="fill:#ff0000;stroke-width:0.9555198"
         id="path3899-6"
         cx="-312.14352"
         cy="455.28107"
         r="9.2169075" />
      <circle
         style="fill:#ff0000;stroke-width:0.9555198"
         id="path3899-3-6"
         cx="-283.46887"
         cy="313.9552"
         r="9.2169075" />
      <path
         style="fill:none;fill-opacity:1;stroke:#ff0000;stroke-width:1.91103959;stroke-linecap:butt;stroke-linejoin:miter;stroke-miterlimit:4;stroke-dasharray:none;stroke-opacity:1;marker-end:url(#Arrow1Mend)"
         d="M -282.96856,312.83914 C -333.53216,161.85376 -466.64385,153.38728 -525.674,261.33478"
         id="path3957"
         inkscape:connector-curvature="0"
         sodipodi:nodetypes="cc" />
      <path
         style="fill:none;stroke:#ff0000;stroke-width:1.91103959;stroke-linecap:butt;stroke-linejoin:miter;stroke-miterlimit:4;stroke-dasharray:none;stroke-opacity:1;marker-end:url(#marker6228)"
         d="m -527.79059,275.44556 c 92.19047,-6.58504 209.07474,67.96694 215.18941,164.39063"
         id="path5600"
         inkscape:connector-curvature="0"
         sodipodi:nodetypes="cc" />
      <path
         style="fill:none;stroke:#ff0000;stroke-width:1.91103959;stroke-linecap:butt;stroke-linejoin:miter;stroke-miterlimit:4;stroke-dasharray:none;stroke-opacity:1;marker-end:url(#marker6158)"
         d="m -310.4845,452.53589 c 11.99416,-86.31096 54.32641,-95.01261 67.73169,-59.26528"
         id="path5602"
         inkscape:connector-curvature="0"
         sodipodi:nodetypes="cc" />
      <text
         xml:space="preserve"
         style="font-style:normal;font-weight:normal;font-size:43.81343079px;line-height:1.25;font-family:sans-serif;letter-spacing:0px;word-spacing:0px;fill:#000000;fill-opacity:1;stroke:none;stroke-width:1.09533584"
         x="-1609.0144"
         y="542.05267"
         id="text8848"><tspan
           sodipodi:role="line"
           id="tspan8846"
           x="-1609.0144"
           y="580.81726"
           style="stroke-width:1.09533584" /></text>
      <text
         xml:space="preserve"
         style="font-style:normal;font-weight:normal;font-size:22.36278343px;line-height:1.25;font-family:sans-serif;letter-spacing:0px;word-spacing:0px;fill:#000000;fill-opacity:1;stroke:none;stroke-width:0.55906963"
         x="-592.51526"
         y="284.13654"
         id="text8852"><tspan
           sodipodi:role="line"
           id="tspan8850"
           x="-592.51526"
           y="284.13654"
           style="stroke-width:0.55906963">CAM</tspan></text>
      <text
         xml:space="preserve"
         style="font-style:normal;font-weight:normal;font-size:22.36278343px;line-height:1.25;font-family:sans-serif;letter-spacing:0px;word-spacing:0px;fill:#000000;fill-opacity:1;stroke:none;stroke-width:0.55906963"
         x="-299.14694"
         y="462.08734"
         id="text8852-9"><tspan
           sodipodi:role="line"
           id="tspan8850-2"
           x="-299.14694"
           y="462.08734"
           style="stroke-width:0.55906963">SB</tspan></text>
      <text
         xml:space="preserve"
         style="font-style:normal;font-weight:normal;font-size:22.36278343px;line-height:1.25;font-family:sans-serif;letter-spacing:0px;word-spacing:0px;fill:#000000;fill-opacity:1;stroke:none;stroke-width:0.55906963"
         x="-268.10321"
         y="320.27396"
         id="text8852-4"><tspan
           sodipodi:role="line"
           id="tspan8850-5"
           x="-268.10321"
           y="320.27396"
           style="stroke-width:0.55906963">MS</tspan></text>
      <text
         xml:space="preserve"
         style="font-style:normal;font-weight:normal;font-size:22.36278343px;line-height:1.25;font-family:sans-serif;letter-spacing:0px;word-spacing:0px;fill:#000000;fill-opacity:1;stroke:none;stroke-width:0.55906963"
         x="-229.29861"
         y="417.63837"
         id="text8852-1"><tspan
           sodipodi:role="line"
           id="tspan8850-0"
           x="-229.29861"
           y="417.63837"
           style="stroke-width:0.55906963">FRA</tspan></text>
      <text
         xml:space="preserve"
         style="font-style:normal;font-weight:normal;font-size:19.01396561px;line-height:1.25;font-family:sans-serif;letter-spacing:0px;word-spacing:0px;fill:#000000;fill-opacity:1;stroke:none;stroke-width:0.47534916"
         x="-434.66382"
         y="183.58116"
         id="text8890"><tspan
           sodipodi:role="line"
           id="tspan8888"
           x="-434.66382"
           y="183.58116"
           style="fill:#ff0000;stroke:#000000;stroke-width:0.47534916;stroke-opacity:1">2007</tspan></text>
      <text
         xml:space="preserve"
         style="font-style:normal;font-weight:normal;font-size:19.01396561px;line-height:1.25;font-family:sans-serif;letter-spacing:0px;word-spacing:0px;fill:#000000;fill-opacity:1;stroke:none;stroke-width:0.47534916"
         x="-452.40201"
         y="280.95584"
         id="text8890-3"><tspan
           sodipodi:role="line"
           id="tspan8888-3"
           x="-452.40201"
           y="280.95584"
           style="fill:#ff0000;stroke:#000000;stroke-width:0.47534916;stroke-opacity:1">2010</tspan></text>
      <text
         xml:space="preserve"
         style="font-style:normal;font-weight:normal;font-size:19.01396561px;line-height:1.25;font-family:sans-serif;letter-spacing:0px;word-spacing:0px;fill:#000000;fill-opacity:1;stroke:none;stroke-width:0.47534916"
         x="-302.12222"
         y="367.73712"
         id="text8890-0"><tspan
           sodipodi:role="line"
           id="tspan8888-0"
           x="-302.12222"
           y="367.73712"
           style="fill:#ff0000;stroke:#000000;stroke-width:0.47534916;stroke-opacity:1">2018</tspan></text>
    </g>
  </g>
</svg>
